<svg height="512" viewBox="0 0 60 60" width="512" xmlns="http://www.w3.org/2000/svg"><g id="Page-1" fill="none" fill-rule="evenodd"><g id="027---Formal-Dress" fill="rgb(0,0,0)" fill-rule="nonzero"><path id="Shape" d="m.031 25c1.04 5.842 7.374 35 29.969 35s28.924-29.16 29.963-34.992c.180057-.9532627-.3535015-1.8974458-1.263-2.235l-6.162-2.294 2.95-5.132c.5336545-.944931.2163796-2.1430317-.715-2.7l-8.789-5.259c-.16-4.908-2.187-7-2.277-7.095-.1874927-.18754937-.4418052-.29294336-.707-.293-.307 0-6.706.051-10.465 3.733-.3759288-.46206746-.9393279-.73110429-1.535-.733h-2c-.5956721.00189571-1.1590712.27093254-1.535.733-3.759-3.682-10.158-3.733-10.465-3.733-.2651948.00005664-.5195073.10545063-.707.293-.09.09-2.116 2.187-2.277 7.093l-8.79 5.252c-.93143325.5621182-1.24580974 1.7637547-.709 2.71l2.941 5.128-6.158 2.298c-.90517627.3380436-1.43924758 1.2748779-1.269 2.226zm17.382-9.009c1.506-.062 6.775-.512 10.052-3.722.3763189.4613195.9396601.7295946 1.535.731v39.837c-13.822-12.397-12.69-29.973-11.587-36.848zm15.122-3.722c3.277 3.21 8.546 3.66 10.052 3.722 1.103 6.873 2.235 24.449-11.587 36.846v-39.837c.5956721-.0018957 1.1590712-.2709325 1.535-.733zm18.265 7.218c-.2911771.5139962-.3402277 1.1304241-.134 1.684.1992259.5460012.6291685.9763097 1.175 1.176l6.159 2.298c-.976 5.48-6.811 32.469-27 33.334v-2.5c16.68-13.679 14.607-34.134 13.4-40.726.8795157-1.5568375 1.3989124-3.2910076 1.52-5.075l7.833 4.674zm-8.272-17.469c1.0729563 1.80393442 1.5853313 3.88615397 1.472 5.982.1127635 2.0952167-.3988364 4.1767669-1.47 5.981-1.647-.095-7.166-.68-9.529-4.27v-.657c2.375.248 3.067 1.33 3.116 1.414.2526703.4923618.8566381.6866702 1.349.4339999.4923618-.2526702.6866702-.8566381.434-1.3489999-.3820444-.65573116-.937822-1.1931674-1.606-1.553.6659703-.36072026 1.2195899-.89807735 1.6-1.553.2387902-.48258207.0476639-1.06751768-.43-1.316-.4835848-.24979416-1.0781252-.07324172-1.347.4-.031.054-.707 1.164-3.118 1.416v-.659c2.363-3.588 7.881-4.175 9.529-4.27zm-13.528 2.982h2v1 5h-2zm-11.529-2.982c1.646.1 7.166.68 9.529 4.27v.658c-2.375-.248-3.067-1.33-3.116-1.414-.163449-.31778774-.4840199-.52423672-.8409566-.5415796-.3569368-.01734288-.6960123.15705514-.8895.4575-.1934878.30044487-.2119924.68129186-.0485434.9990796.3806825.65505722.9346618 1.19242748 1.601 1.553-.6659703.36072026-1.2195899.89807735-1.6 1.553-.1502973.30831197-.1312024.6722966.0505298.96319.1817321.2908934.5004752.4676764.8434702.46781.3654549-.0006463.7028087-.1961972.885-.513.031-.054.707-1.164 3.118-1.416v.657c-2.362 3.589-7.88 4.175-9.528 4.27-1.0740037-1.8036084-1.5874282-3.8858494-1.475-5.982-.1132076-2.09570471.3987876-4.17779526 1.471-5.982zm-9.314 20.332c.55028352-.2051115.98261035-.6417117 1.1822995-1.193986.19968914-.5522743.14655805-1.1644045-.1452995-1.674014l-2.942-5.128 7.828-4.677c.1209402 1.7843347.6403416 3.5188623 1.52 5.076-1.2 6.59-3.266 27.034 13.4 40.712v2.493c-20.183-.874-26.025-27.832-27-33.31z"/><path id="Shape" d="m36 23c1.6568542 0 3-1.3431458 3-3s-1.3431458-3-3-3-3 1.3431458-3 3 1.3431458 3 3 3zm0-4c.5522847 0 1 .4477153 1 1s-.4477153 1-1 1-1-.4477153-1-1 .4477153-1 1-1z"/><path id="Shape" d="m36 32c1.6568542 0 3-1.3431458 3-3s-1.3431458-3-3-3-3 1.3431458-3 3 1.3431458 3 3 3zm0-4c.5522847 0 1 .4477153 1 1s-.4477153 1-1 1-1-.4477153-1-1 .4477153-1 1-1z"/><path id="Shape" d="m36 41c1.6568542 0 3-1.3431458 3-3s-1.3431458-3-3-3-3 1.3431458-3 3 1.3431458 3 3 3zm0-4c.5522847 0 1 .4477153 1 1s-.4477153 1-1 1-1-.4477153-1-1 .4477153-1 1-1z"/></g></g></svg>